<?xml version="1.0" encoding="utf-8" ?>
<svg xmlns="http://www.w3.org/2000/svg" xmlns:xlink="http://www.w3.org/1999/xlink" width="691" height="691" style="display:none;">
<symbol id="checklist" viewBox="0 0 24 24">
	<path fill="#CAADFF" transform="matrix(1.34961 0 0 1.34961 0 3.05176e-05)" d="M103.124 69.2327C105.717 69.1652 105.736 72.3265 107.182 73.8203C108.587 75.2728 110.752 75.5423 112.348 76.7259C115.544 79.0973 109.206 81.2977 107.966 82.462C106.536 83.8044 105.785 86.0712 104.426 87.6025C101.287 87.9166 100.464 84.4623 99.4751 82.1798C92.3299 79.6178 92.2006 77.5341 99.4751 74.48C100.346 72.0971 100.907 70.6624 103.124 69.2327Z"/>
	<path fill="#FFADC7" transform="matrix(1.34961 0 0 1.34961 0 3.05176e-05)" d="M390.119 254.801C398.681 253.988 402.336 273.881 392.22 277.57C383.367 279.33 379.83 258.93 390.119 254.801Z"/>
	<path fill="#FFADC7" transform="matrix(1.34961 0 0 1.34961 0 3.05176e-05)" d="M431.587 265.258C432.566 265.216 433.563 265.256 434.544 265.258C446.289 272.009 429.884 285.745 424.23 287.41C419.034 287.695 414.877 283.159 417.576 277.971C419.426 274.414 427.304 266.758 431.587 265.258Z"/>
	<path fill="#FFADC7" transform="matrix(1.34961 0 0 1.34961 0 3.05176e-05)" d="M336.354 327.564C343.813 327.348 345.325 336.291 338.945 339.591C335.897 341.168 326.405 344.56 323.166 344.948C313.269 344.854 312.43 329.709 336.354 327.564Z"/>
	<path fill="#FFADC7" transform="matrix(1.34961 0 0 1.34961 0 3.05176e-05)" d="M444.849 327.564C447.51 327.884 460.58 331.599 462.608 332.838C467.697 335.946 466.216 343.905 460.439 344.948C457.18 344.912 444.815 340.961 441.751 339.31C436.688 336.583 438.264 328.946 444.849 327.564Z"/>
	<path fill="#FFADC7" transform="matrix(1.34961 0 0 1.34961 0 3.05176e-05)" d="M458.668 293.107C463.958 292.857 467.948 298.098 464.426 302.487C461.579 306.034 449.512 308.34 444.849 308.905C437.653 310.216 434.562 300.108 441.525 297.21C444.823 295.838 455.162 293.383 458.668 293.107Z"/>
	<path fill="#FFADC7" transform="matrix(1.34961 0 0 1.34961 0 3.05176e-05)" d="M322.161 293.107C325.263 292.593 342.047 297.141 343.823 301.07C345.693 305.204 343.431 308.942 339.612 310.657C336.71 310.915 324.014 306.684 320.912 305.122C315.181 302.237 315.905 295.014 322.161 293.107Z"/>
	<path fill="#FFC2E2" transform="matrix(1.34961 0 0 1.34961 0 3.05176e-05)" d="M60.8427 93.7838C67.1883 93.3055 64.8856 99.6683 68.4984 102.534C70.9246 104.459 77.6777 103.573 77.9373 107.55C78.2546 112.412 71.0596 111.346 68.6543 113.923C66.3148 116.429 66.6093 120.145 64.2448 122.634C57.7972 124.283 59.3514 117.924 56.1337 114.632C53.9096 112.357 45.9532 111.969 47.3871 107.381C48.2383 104.657 52.7495 104.649 54.9168 103.437C58.6059 101.375 56.6249 96.0429 60.8427 93.7838Z"/>
	<path fill="#FFC2E2" transform="matrix(1.34961 0 0 1.34961 0 3.05176e-05)" d="M442.327 207.903C448.862 208.475 447.937 215.304 450.705 219.556L450.902 219.854C454.515 221.819 460.009 220.869 461.373 225.777C463.171 232.243 453.189 231.993 450.298 235.269C447.09 238.902 449.498 243.918 443.585 245.452C437.441 245.205 438.695 238.309 435.699 234.797C432.643 231.216 423.274 233.529 424.701 226.404C425.812 220.854 431.749 222.538 435.321 220.135C439.449 217.358 436.511 211.446 442.327 207.903Z"/>
	<path fill="#FFADC7" transform="matrix(1.34961 0 0 1.34961 0 3.05176e-05)" d="M189.868 295.052C194.542 294.777 219.965 294.646 223.374 295.854C230.869 298.51 228.124 329.711 226.903 332.604C225.84 335.124 223.481 336.557 221.028 337.476C216.631 337.914 211.756 337.498 207.31 337.489C200.881 337.477 184.497 340.222 183.35 330.843C182.627 324.927 182.609 307.724 183.449 301.931C184.019 298.003 185.636 295.502 189.868 295.052Z"/>
	<path fill="#FEFEFE" transform="matrix(1.34961 0 0 1.34961 0 3.05176e-05)" d="M195.996 307.478C202.246 307.464 208.579 307.754 214.818 307.478C214.929 313.31 214.827 319.163 214.818 324.997L195.996 324.997L195.996 307.478Z"/>
	<path fill="#AF99FF" transform="matrix(1.34961 0 0 1.34961 0 3.05176e-05)" d="M256.417 295.052C261.25 294.196 280.958 294.816 286.017 295.072C290.224 295.285 294.339 296.751 294.748 301.67C295.069 305.53 295.07 330.339 294.232 332.65C293.324 335.157 291.189 336.447 288.89 337.476C285.047 337.958 280.978 337.495 277.096 337.488C270.521 337.477 252.742 340.126 250.576 332.038C249.876 329.423 249.982 304.433 250.436 300.933C250.866 297.612 253.253 295.76 256.417 295.052Z"/>
	<path fill="#FEFEFE" transform="matrix(1.34961 0 0 1.34961 0 3.05176e-05)" d="M263.008 307.478C269.32 307.5 275.682 307.241 281.986 307.478L281.986 324.997C275.673 325.011 269.315 324.781 263.008 324.997L263.008 307.478Z"/>
	<path fill="#9F8BE8" transform="matrix(1.34961 0 0 1.34961 0 3.05176e-05)" d="M123.186 295.052L141.124 295.039C146.752 295.039 158.444 293.498 159.8 301.208C160.462 304.968 160.311 326.905 159.709 330.772C159.079 334.813 156.099 336.93 152.158 337.476L132.485 337.5C125.592 337.546 115.729 339.482 114.924 329.762C114.411 323.563 114.378 305.725 115.432 300.489C116.237 296.489 119.425 295.337 123.186 295.052Z"/>
	<path fill="#FEFEFE" transform="matrix(1.34961 0 0 1.34961 0 3.05176e-05)" d="M127.748 307.478L147.145 307.478L147.145 324.997C140.707 324.987 134.172 325.285 127.748 324.997L127.748 307.478Z"/>
	<path fill="#9F8BE8" transform="matrix(1.34961 0 0 1.34961 0 3.05176e-05)" d="M189.868 354.249C195.112 353.975 200.479 354.231 205.741 354.228C211.581 354.226 225.3 351.968 227.186 359.765C228.124 363.648 228.087 385.767 227.532 390.264C227.032 394.322 225.057 396.51 221.028 397.534C216.583 398.034 211.64 397.55 207.135 397.543C200.522 397.533 185.687 400.27 183.4 391.746C182.701 389.137 182.843 365.429 183.192 361.757C183.6 357.456 185.652 355.391 189.868 354.249Z"/>
	<path fill="#FEFEFE" transform="matrix(1.34961 0 0 1.34961 0 3.05176e-05)" d="M195.996 366.765L214.818 366.765L214.818 384.93C208.621 384.564 202.212 384.917 195.996 384.93L195.996 366.765Z"/>
	<path fill="#FFADC7" transform="matrix(1.34961 0 0 1.34961 0 3.05176e-05)" d="M256.417 354.249C261.778 353.981 267.26 354.245 272.637 354.237C278.732 354.228 292.064 351.823 294.422 359.55C295.126 361.859 295.043 387.357 294.632 390.982C294.253 394.321 292.129 396.646 288.89 397.534C285.836 397.993 279.078 397.549 275.716 397.544C269.48 397.536 253.753 400.156 250.979 392.74C249.819 389.638 249.747 361.301 251.042 358.558C252.055 356.411 254.239 354.985 256.417 354.249Z"/>
	<path fill="#FEFEFE" transform="matrix(1.34961 0 0 1.34961 0 3.05176e-05)" d="M271.977 366.765C275.311 366.853 278.652 366.789 281.986 366.765L281.986 384.93C278.965 385.169 276.011 385.09 272.991 384.93C269.668 385.004 266.332 384.931 263.008 384.93L263.008 366.765C266.032 366.969 268.95 366.973 271.977 366.765Z"/>
	<path fill="#9F8BE8" transform="matrix(1.34961 0 0 1.34961 0 3.05176e-05)" d="M122.297 354.249C127.884 353.961 133.635 354.228 139.238 354.224C145.715 354.219 157.846 351.878 159.718 360.561C160.51 364.234 160.43 385.046 159.972 389.716C159.539 394.135 157.384 396.507 152.932 397.534L133.664 397.549C128.208 397.55 117.699 399.09 115.628 392.265C114.441 388.356 114.23 361.668 115.932 358.747C117.328 356.349 119.72 355.009 122.297 354.249Z"/>
	<path fill="#FEFEFE" transform="matrix(1.34961 0 0 1.34961 0 3.05176e-05)" d="M127.748 366.765L147.145 366.765L147.145 384.93L127.748 384.93L127.748 366.765Z"/>
	<path fill="#FFADC7" transform="matrix(1.34961 0 0 1.34961 0 3.05176e-05)" d="M257.604 235.671C262.117 235.319 266.849 235.654 271.393 235.655C277.764 235.655 292.941 233.004 294.497 241.976C295.268 246.423 295.193 266.855 294.605 271.755C294.028 276.571 291.5 278.862 286.641 279.678C279.989 279.232 272.551 279.69 265.823 279.711C260.22 279.729 251.424 280.59 250.436 272.959C249.73 267.512 249.753 246.385 250.563 241.261C251.118 237.752 254.259 235.995 257.604 235.671Z"/>
	<path fill="#FEFEFE" transform="matrix(1.34961 0 0 1.34961 0 3.05176e-05)" d="M268.168 248.189C272.774 248.203 277.381 248.239 281.986 248.189L281.986 265.815L278.062 265.815L263.008 265.815L263.008 248.189C264.724 248.289 266.45 248.22 268.168 248.189Z"/>
	<path fill="#FFADC7" transform="matrix(1.34961 0 0 1.34961 0 3.05176e-05)" d="M192.378 235.671C196.858 234.898 205.167 235.715 210.035 235.704C231.498 235.652 227.711 237.233 227.697 256.847C227.69 265.755 231.088 277.815 219.156 279.678L203.312 279.701C197.904 279.703 189.457 280.659 185.075 276.665C181.405 273.319 182.793 244.789 183.762 240.977C184.757 237.063 188.764 235.83 192.378 235.671Z"/>
	<path fill="#FEFEFE" transform="matrix(1.34961 0 0 1.34961 0 3.05176e-05)" d="M207.182 248.189C209.718 248.052 212.279 248.156 214.818 248.189C215.052 254.52 214.75 260.894 214.818 267.233L204.197 267.233C201.437 267.117 198.756 267.093 195.996 267.233L195.996 248.189L207.182 248.189Z"/>
	<path fill="#FFADC7" transform="matrix(1.34961 0 0 1.34961 0 3.05176e-05)" d="M123.186 235.671C130.157 235.398 146.803 234.967 153.105 236.085C157.737 236.906 159.617 239.88 159.91 244.446C160.394 251.962 163.971 279.512 152.158 279.678L131.716 279.7C124.967 279.731 116.273 281.443 115.147 272.092C114.52 266.878 114.868 261.366 114.865 256.106C114.86 248.507 112.362 236.457 123.186 235.671Z"/>
	<path fill="#FEFEFE" transform="matrix(1.34961 0 0 1.34961 0 3.05176e-05)" d="M127.748 248.189C132.79 247.838 142.145 247.855 147.145 248.189C147.073 254.535 147.138 260.887 147.145 267.233L127.748 267.233L127.748 248.189Z"/>
	<path fill="#AF99FF" transform="matrix(1.34961 0 0 1.34961 0 3.05176e-05)" d="M349.995 279.678C341.498 279.674 320.656 283.227 317.094 274.071C315.985 271.222 316.347 248.587 316.752 244.535C317.111 240.942 318.74 237.884 322.397 236.727C327.343 235.163 353.028 235.278 358.934 236.079C362.709 236.591 365.399 239.003 366.479 242.705C368.148 248.424 368.221 270.598 364.429 277.57C362.512 286.965 355.664 286.693 349.995 279.678ZM329.068 248.189C329.078 254.41 329.519 261.062 329.068 267.233C332.748 267.737 335.941 267.695 339.612 267.233C336.538 264.303 339.447 248.056 354.241 265.258L354.241 248.189L329.068 248.189Z"/>
	<path fill="#FFADC7" transform="matrix(1.34961 0 0 1.34961 0 3.05176e-05)" d="M339.612 267.233C336.538 264.303 339.447 248.056 354.241 265.258C357.976 269.079 361.442 273.134 364.429 277.57C362.512 286.965 355.664 286.693 349.995 279.678C347.066 275.311 343.039 271.243 339.612 267.233Z"/>
	<path fill="#FFADC7" transform="matrix(1.34961 0 0 1.34961 0 3.05176e-05)" d="M368.999 393.412L350.686 393.434C345.451 393.436 334.096 395.112 333.36 387.392C332.908 382.651 338.217 378.958 340.879 375.736C364.374 347.301 346.329 323.787 364.689 302.573C380.602 284.185 410.554 289.154 421.779 310.11C431.988 329.17 418.335 344.306 437.531 372.482C439.945 376.025 446.849 382.031 446.987 386.146C447.286 395.053 435.622 393.429 429.767 393.429L412.784 393.412C410.428 402.674 407.578 406.535 398.971 411.275C395.524 412.444 385.8 412.385 385.508 412.698L385.544 412.513C383.117 408.624 372.191 411.039 368.999 393.412ZM388.795 304.069C382.48 305.062 380.648 311.048 385.508 315.523L385.852 315.616C391.132 317.008 395.612 316.436 398.864 321.805C401.651 326.407 400.038 333.765 407.302 334.225C408.498 333.993 409.633 333.73 410.793 333.342C420.149 323.196 403.158 302.013 388.795 304.069ZM384.749 393.412C378.839 394.589 389.138 403.38 396.392 397.534C397.918 396.295 398.898 395.18 399.822 393.412C394.799 393.685 389.775 393.291 384.749 393.412Z"/>
	<defs>
		<linearGradient id="gradient_0" gradientUnits="userSpaceOnUse" x1="221.43533" y1="450.40909" x2="258.94064" y2="89.889465">
			<stop offset="0" stop-color="#9A8BF3"/>
			<stop offset="1" stop-color="#E5A1F2"/>
		</linearGradient>
	</defs>
	<path fill="url(#gradient_0)" transform="matrix(1.34961 0 0 1.34961 0 3.05176e-05)" d="M129.312 128.264C129.291 119.609 127.927 109.477 134.58 102.76C142.426 94.8383 155.822 94.8479 163.619 102.863C170.385 109.818 168.985 119.369 168.959 128.264L221.028 128.264C221.011 119.163 219.712 109.67 226.757 102.661C234.185 95.2717 246.58 95.0627 253.919 102.615C261.32 110.232 259.988 118.494 259.951 128.264L294.479 128.271C299.935 128.274 305.586 128.626 311.012 128.264C310.983 119.386 309.702 109.901 316.523 102.997C324.021 95.4086 337.246 94.8968 344.803 102.677C352.364 110.463 350.715 118.435 350.895 128.264C368.889 128.32 393.851 124.426 398.449 148.46C399.18 152.281 398.959 156.634 398.969 160.522L398.977 177.406C398.983 196.495 399.182 215.608 398.967 234.694C398.871 243.18 392.052 246.454 387.578 241.307C383.659 236.798 386.18 214.831 385.508 207.903L91.5234 207.903L91.5276 392.483C91.5266 400.12 90.9725 408.128 91.7795 415.705C93.1347 428.429 106.947 426.156 116.03 426.136L358.851 426.131C371.826 426.132 389.361 430.919 385.508 412.698C385.8 412.385 395.524 412.444 398.971 411.275C397.877 437.134 390.529 438.579 366.309 438.565L120.22 438.549C103.1 438.56 81.3395 440.484 78.8482 416.317C78.3835 411.81 78.6315 407.089 78.6374 402.558L78.6604 168.246C78.6482 152.4 77.0793 134.829 97.3027 129.214C102.407 127.797 108.102 128.237 113.357 128.242L129.312 128.264ZM329.068 110.295C327.116 111.026 325.69 111.998 324.788 113.937C323.676 116.328 323.639 147.87 324.584 150.46C325.575 153.173 329.299 155.164 332.122 154.559C336.143 153.103 337.139 151.645 337.435 147.528C337.745 143.205 338.003 115.61 336.832 113.329C335.287 110.32 332.008 110.175 329.068 110.295ZM148.081 110.295C146.255 110.928 144.593 111.795 143.739 113.629C142.558 116.168 142.492 147.183 143.551 150.08C144.607 152.967 148.017 154.274 150.878 153.87C152.708 153.029 154.268 151.976 155.041 150.033C156.021 147.568 155.861 121.554 155.551 117.266C155.19 112.28 153.495 110.033 148.081 110.295ZM238.632 110.295C235.101 111.32 234.309 113.298 234.052 116.709C233.631 122.329 232.936 147.774 235.069 151.654L235.269 152.023C237.599 153.607 239.221 153.97 242.025 153.87C243.594 153.004 245.545 151.776 246.046 149.924C246.959 146.552 247.504 116.49 245.4 112.922C243.909 110.394 241.251 110.175 238.632 110.295Z"/>
	<path fill="#FFC2E2" transform="matrix(1.34961 0 0 1.34961 0 3.05176e-05)" d="M103.124 141.522C105.92 141.258 108.925 141.494 111.747 141.499L129.312 141.522L129.253 144.724C129.034 164.49 149.913 174.879 163.183 161.301C168.767 155.588 169.023 149.095 168.959 141.522L221.028 141.522C220.882 149.003 221.152 156.302 226.87 161.938C234.184 169.146 247.158 169.406 254.367 161.87C260.12 155.856 260.088 149.327 259.951 141.522L294.201 141.524C299.758 141.527 305.481 141.87 311.012 141.522C310.899 149.223 310.727 156.052 316.778 161.965C324.824 169.828 338.177 169.661 345.946 161.482C351.261 155.886 351.121 148.746 350.895 141.522L372.151 141.522C387.87 142.657 385.523 153.673 385.522 166.162L385.508 194.775L91.5234 194.775C91.6905 191.458 91.544 188.093 91.5366 184.77L91.5061 165.467C91.4973 155.758 90.1927 143.111 103.124 141.522Z"/>
</svg>
