<?xml version="1.0" encoding="utf-8" ?>
<svg xmlns="http://www.w3.org/2000/svg" xmlns:xlink="http://www.w3.org/1999/xlink" width="691" height="691">
	<path fill="#FFADC7" transform="matrix(1.34961 0 0 1.34961 0 3.05176e-05)" d="M349.356 406.077C353.774 405.892 355.649 408.861 357.493 412.505L357.357 412.784C356.001 415.513 354.476 417.533 351.474 418.534C343.569 420.406 341.269 407.44 349.356 406.077Z"/>
	<path fill="#FFADC7" transform="matrix(1.34961 0 0 1.34961 0 3.05176e-05)" d="M115.465 128.338C124.322 128.478 124.367 138.906 116.284 141.286C107.165 141.566 106.849 130.087 115.465 128.338Z"/>
	<path fill="#CAADFF" transform="matrix(1.34961 0 0 1.34961 0 3.05176e-05)" d="M205.01 217.524C208.693 217.425 214.207 217.204 217.733 217.524L217.733 229.047C214.321 228.582 208.62 229.03 205.01 229.047L205.01 217.524Z"/>
	<path fill="#FFC2E2" transform="matrix(1.34961 0 0 1.34961 0 3.05176e-05)" d="M109.085 356.773C118.099 356.24 119.539 367.749 111.341 370.288C101.213 370.823 99.7436 359.427 109.085 356.773Z"/>
	<path fill="#FFADC7" transform="matrix(1.34961 0 0 1.34961 0 3.05176e-05)" d="M105.88 247.254C108.985 247.087 113.941 246.668 116.769 248.02C121.356 250.215 119.87 256.865 115.465 258.255C110.101 258.529 99.7955 259.89 102.472 250.877C103.024 249.019 104.213 248.106 105.88 247.254Z"/>
	<path fill="#FFADC7" transform="matrix(1.34961 0 0 1.34961 0 3.05176e-05)" d="M125.69 229.816C133.949 230.83 133.32 245.848 125.69 247.254C116.266 248.187 117.072 231.347 125.69 229.816Z"/>
	<path fill="#FFADC7" transform="matrix(1.34961 0 0 1.34961 0 3.05176e-05)" d="M135.742 247.254C138.969 247.222 143.935 246.66 146.685 248.52C151.072 251.488 148.862 257.717 143.809 258.255C128.073 260.592 127.986 249.558 135.742 247.254Z"/>
	<path fill="#FFADC7" transform="matrix(1.34961 0 0 1.34961 0 3.05176e-05)" d="M354.754 294.306C363.596 293.715 365.654 308.743 357.493 311.575C347.509 311.71 347.097 297.192 354.754 294.306Z"/>
	<path fill="#FFADC7" transform="matrix(1.34961 0 0 1.34961 0 3.05176e-05)" d="M123.479 258.255C134.607 258.331 132.987 273.955 126.91 276.218C116.791 276.978 117.064 261.678 123.479 258.255Z"/>
	<path fill="#FFADC7" transform="matrix(1.34961 0 0 1.34961 0 3.05176e-05)" d="M354.754 264.572C364.56 263.364 364.269 277.894 357.493 281.829C347.521 282.959 346.729 267.507 354.754 264.572Z"/>
	<path fill="#FFADC7" transform="matrix(1.34961 0 0 1.34961 0 3.05176e-05)" d="M337.375 281.829C347.394 280.702 356.605 288.22 344.35 294.306C329.039 295.763 329.875 284.43 337.375 281.829Z"/>
	<path fill="#FFADC7" transform="matrix(1.34961 0 0 1.34961 0 3.05176e-05)" d="M370.096 281.829C375.123 280.661 378.34 282.418 379.853 287.434C378.934 292.005 377.48 294.564 372.48 294.786C367.714 294.737 363.859 292.992 362.367 288.212C363.211 283.858 365.784 282.406 370.096 281.829Z"/>
	<path fill="#FFADC7" transform="matrix(1.34961 0 0 1.34961 0 3.05176e-05)" d="M391.574 147.775L392.454 147.738C400.079 147.495 398.28 156.551 398.239 161.62C401.113 161.586 404.435 161.229 407.254 161.764C413.451 162.94 413.053 169.564 408.536 172.455C405.136 172.668 401.648 172.49 398.239 172.455C398.31 177.217 399.89 184.662 393.653 185.94C385.668 186.267 387.182 178.086 387.25 172.455C383.57 172.395 377.421 173.555 374.714 170.464C367.611 162.355 382.02 161.141 387.25 161.62C387.403 157.874 386.974 154.104 387.25 150.376C388.57 149.199 389.982 148.497 391.574 147.775Z"/>
	<path fill="#FFC2E2" transform="matrix(1.34961 0 0 1.34961 0 3.05176e-05)" d="M205.01 229.047C208.62 229.03 214.321 228.582 217.733 229.047C220.41 229.212 226.541 228.817 228.548 230.535C229.844 231.645 230.626 253.888 227.58 257.25C224.413 258.257 199.289 257.994 196.545 256.654C194.089 253.595 195.019 237.039 195.474 233.088C196.09 227.734 200.611 229.185 205.01 229.047Z"/>
	<path fill="#FFC2E2" transform="matrix(1.34961 0 0 1.34961 0 3.05176e-05)" d="M315.755 226.486C316.483 232.927 323.615 226.035 326.059 230.864C327.389 233.491 326.83 251.437 326.748 255.37C322.083 260.524 293.341 257.135 293.191 256.967C291.9 255.515 290.84 231.649 293.425 229.45C296.381 228.385 300.547 228.836 303.643 229.047C306.572 229.059 313.27 229.47 315.69 228.892L315.755 226.486Z"/>
	<path fill="#CAADFF" transform="matrix(1.34961 0 0 1.34961 0 3.05176e-05)" d="M253.596 217.524C257.345 217.695 261.224 217.932 264.965 217.524L264.965 346.677C261.132 346.116 257.437 346.388 253.596 346.677L253.596 217.524Z"/>
	<path fill="#FFC2E2" transform="matrix(1.34961 0 0 1.34961 0 3.05176e-05)" d="M180.512 130.495C181.993 125.144 183.117 119.695 184.464 114.308L193.51 78.6128C199.72 54.3538 195.13 55.7877 220.154 56.0349L290.573 56.0366C299.087 56.0354 307.81 55.6399 316.3 56.1237C325.376 56.6409 325.522 65.5506 327.074 72.4885C331.391 91.7887 335.703 111.122 339.668 130.495C326.529 130.178 313.3 130.5 300.153 130.5L220.363 130.498C207.088 130.498 193.784 130.692 180.512 130.495ZM311.023 88.5848C304.462 90.4071 310.611 107.002 312.247 111.359C313.894 112.939 315.363 113.347 317.575 113.247C323.986 110.077 317.907 93.1924 315.755 88.5848C314.115 88.0677 312.669 88.2707 311.023 88.5848Z"/>
	<path fill="#FEFEFE" transform="matrix(1.34961 0 0 1.34961 0 3.05176e-05)" d="M307.319 66.7471C314.209 66.3992 316.863 78.0547 310.126 80.23C305.541 80.3837 299.33 70.3255 307.319 66.7471Z"/>
	<path fill="#FFADC7" transform="matrix(1.34961 0 0 1.34961 0 3.05176e-05)" d="M180.512 130.495C193.784 130.692 207.088 130.498 220.363 130.498L300.153 130.5C313.3 130.5 326.529 130.178 339.668 130.495C342.603 139.605 344.703 148.86 347.055 158.121L358.379 201.279C359.344 205.084 360.649 208.978 361.189 212.859C358.339 220.247 350.369 217.528 343.077 217.527L315.755 217.524L315.755 226.486L315.69 228.892C313.27 229.47 306.572 229.059 303.643 229.047C303.54 225.215 303.631 221.358 303.643 217.524L264.965 217.524C261.224 217.932 257.345 217.695 253.596 217.524C241.659 217.292 229.675 217.514 217.733 217.524C214.207 217.204 208.693 217.425 205.01 217.524C202.44 217.842 199.492 217.54 196.88 217.537L178.706 217.526C174.234 217.526 165.768 218.278 161.787 217.524C157.87 213.965 160.627 208.423 161.71 204.047L180.512 130.495Z"/>
	<path fill="#CAADFF" transform="matrix(1.34961 0 0 1.34961 0 3.05176e-05)" d="M295.744 443.13C301.557 443.107 319.623 440.119 320.011 448.587C320.412 457.375 309.489 455.005 303.931 454.968L179.102 455.006C160.574 455.019 146.023 459.475 145.624 434.283C145.479 425.064 145.619 415.823 145.618 406.601L145.6 325.417C145.589 304.813 144.246 298.676 165.745 298.733L226.617 298.643C241.337 298.566 239.375 311.109 239.376 321.887L239.361 351.353C243.702 348.718 248.637 347.472 253.596 346.677C257.437 346.388 261.132 346.116 264.965 346.677C274.638 347.649 282.24 353.427 286.349 362.003C288.529 361.709 291.186 361.863 293.386 362.003C296.866 365.366 295.762 370.786 295.757 375.231L295.744 443.13ZM204.28 311.575L203.955 311.892C204.647 322.837 206.104 331.884 209.439 342.385C194.439 346.992 181.137 346.785 166.086 342.385C169.627 332.285 171.264 322.278 171.262 311.575L157.781 311.575L157.781 337.375L157.781 359.76L203.328 359.763C211.035 359.767 218.833 360.024 226.53 359.76C226.275 354.447 226.523 349.047 226.527 343.725L226.53 311.575L204.28 311.575ZM157.781 379.015C157.779 386.686 157.204 438.982 158.368 441.446C161.008 443.219 166.108 442.738 169.251 443.13L169.251 379.015L157.781 379.015ZM186.204 311.575L183.26 311.575C183.244 316.143 182.882 320.956 183.26 325.496C185.695 325.647 188.127 325.557 190.563 325.496C194.267 324.717 192.55 315.252 192.535 311.575C190.411 311.699 188.327 311.754 186.204 311.575Z"/>
	<path fill="#FFADC7" transform="matrix(1.34961 0 0 1.34961 0 3.05176e-05)" d="M264.965 346.677C274.638 347.649 282.24 353.427 286.349 362.003C281.065 362.226 275.677 362.016 270.382 362.014L238.396 362.003C239.451 358.416 239.467 355.053 239.361 351.353C243.702 348.718 248.637 347.472 253.596 346.677C257.437 346.388 261.132 346.116 264.965 346.677Z"/>
</svg>
